<?xml version="1.0" encoding="windows-1252"?>
<!-- Generator: Adobe Illustrator 16.0.0, SVG Export Plug-In . SVG Version: 6.00 Build 0)  -->
<!DOCTYPE svg PUBLIC "-//W3C//DTD SVG 1.1//EN" "http://www.w3.org/Graphics/SVG/1.1/DTD/svg11.dtd">
<svg version="1.1" id="Capa_1" xmlns="http://www.w3.org/2000/svg" xmlns:xlink="http://www.w3.org/1999/xlink" x="0px" y="0px" width="485.213px" height="485.212px" viewBox="0 0 485.213 485.212" style="enable-background:new 0 0 485.213 485.212;" xml:space="preserve">
<g>
	<path d="M90.979,75.816c0,8.38-6.781,15.161-15.161,15.161l0,0c-8.384,0-15.166-6.781-15.166-15.161V15.163   C60.652,6.781,67.433,0,75.817,0l0,0c8.38,0,15.161,6.781,15.161,15.163V75.816z M333.587,15.163   C333.587,6.781,326.802,0,318.424,0l0,0c-8.382,0-15.168,6.781-15.168,15.163v60.653c0,8.38,6.786,15.161,15.168,15.161l0,0   c8.378,0,15.163-6.781,15.163-15.161V15.163z M363.909,272.93c-50.166,0-90.976,40.814-90.976,90.976   c0,50.171,40.81,90.98,90.976,90.98c50.171,0,90.98-40.81,90.98-90.98C454.89,313.745,414.08,272.93,363.909,272.93    M363.909,242.606c66.991,0,121.303,54.313,121.303,121.3c0,66.996-54.312,121.307-121.303,121.307   c-66.986,0-121.302-54.311-121.302-121.307C242.607,296.919,296.923,242.606,363.909,242.606L363.909,242.606z M121.305,181.955   H60.652v60.651h60.653V181.955z M121.305,272.93H60.652v60.654h60.653V272.93z M212.283,181.955h-60.654v60.651h60.654V181.955z    M212.283,272.93h-60.654v60.654h60.654V272.93z M212.283,363.906H32.859c-1.375,0-2.532-1.419-2.532-3.015V151.628h333.582v60.653   h30.327V94c0-18.421-14.692-33.349-32.843-33.349h-12.647v15.166c0,16.701-13.596,30.325-30.322,30.325   c-16.731,0-30.326-13.624-30.326-30.325V60.651H106.14v15.166c0,16.701-13.593,30.325-30.322,30.325   c-16.733,0-30.327-13.624-30.327-30.325V60.651H32.859C14.707,60.651,0.001,75.579,0.001,94v266.892   c0,18.36,14.706,33.346,32.858,33.346h179.424V363.906z M303.256,181.955h-60.648v60.651h60.648V181.955z M409.399,348.748h-30.322   v-30.332c0-8.377-6.786-15.158-15.168-15.158c-8.377,0-15.163,6.781-15.163,15.158v30.332h-30.322   c-8.382,0-15.168,6.781-15.168,15.158c0,8.387,6.786,15.168,15.168,15.168h30.322v30.322c0,8.382,6.786,15.163,15.163,15.163   c8.382,0,15.168-6.781,15.168-15.163v-30.322h30.322c8.382,0,15.163-6.781,15.163-15.168   C424.562,355.529,417.781,348.748,409.399,348.748z"/>
</g>
<g>
</g>
<g>
</g>
<g>
</g>
<g>
</g>
<g>
</g>
<g>
</g>
<g>
</g>
<g>
</g>
<g>
</g>
<g>
</g>
<g>
</g>
<g>
</g>
<g>
</g>
<g>
</g>
<g>
</g>
</svg>