<svg  xmlns="http://www.w3.org/2000/svg"  width="24"  height="24"  viewBox="0 0 24 24"  fill="none"  stroke="currentColor"  stroke-width="2"  stroke-linecap="round"  stroke-linejoin="round"  class="icon icon-tabler icons-tabler-outline icon-tabler-brain"><path stroke="none" d="M0 0h24v24H0z" fill="none"/><path d="M15.5 13a3.5 3.5 0 0 0 0 -7" /><path d="M8.5 13a3.5 3.5 0 1 1 0 -7" /><path d="M12 5a3 3 0 0 1 3 3v1" /><path d="M12 5a3 3 0 0 0 -3 3v1" /><path d="M12 12v7" /><path d="M9 16a3 3 0 0 0 6 0" /><path d="M8 13a3 3 0 0 0 0 6" /><path d="M16 13a3 3 0 0 1 0 6" /></svg>
