<?xml version="1.0" standalone="no"?>
<!DOCTYPE svg PUBLIC "-//W3C//DTD SVG 20010904//EN"
 "http://www.w3.org/TR/2001/REC-SVG-20010904/DTD/svg10.dtd">
<svg version="1.0" xmlns="http://www.w3.org/2000/svg"
 width="700.000000pt" height="700.000000pt" viewBox="0 0 700.000000 700.000000"
 preserveAspectRatio="xMidYMid meet">
<metadata>
Created by potrace 1.14, written by Peter Selinger 2001-2017
</metadata>
<g transform="translate(0.000000,700.000000) scale(0.100000,-0.100000)"
fill="#000000" stroke="none">
<path d="M6077 6077 c-16 -18 -156 -162 -312 -322 -155 -159 -316 -326 -358
-370 l-77 -79 -37 34 c-21 19 -40 37 -43 40 -29 31 -167 141 -246 197 -451
321 -975 488 -1524 486 -95 0 -253 -9 -300 -17 -14 -3 -52 -7 -85 -11 -32 -4
-62 -8 -65 -10 -3 -2 -23 -6 -45 -9 -144 -23 -393 -100 -555 -173 -313 -139
-558 -309 -805 -557 -334 -334 -554 -721 -669 -1172 -26 -103 -29 -117 -46
-224 -6 -36 -13 -75 -15 -88 -26 -148 -23 -514 5 -682 5 -30 11 -68 13 -85 3
-16 8 -41 11 -55 3 -14 8 -36 10 -50 9 -51 56 -217 79 -285 246 -703 761
-1259 1437 -1552 101 -44 250 -98 309 -112 20 -5 71 -18 115 -30 43 -11 99
-24 125 -27 25 -3 49 -8 52 -10 5 -3 31 -7 129 -19 234 -30 580 -21 782 21 13
2 39 7 58 10 19 3 87 19 150 35 629 164 1176 557 1520 1093 257 400 423 922
434 1364 l1 52 -292 0 -293 0 -1 -57 c-1 -98 -15 -250 -30 -327 -6 -28 -12
-62 -15 -76 -22 -116 -87 -299 -154 -433 -42 -84 -150 -261 -170 -277 -3 -3
-27 -32 -52 -65 -158 -205 -420 -423 -660 -548 -136 -70 -333 -147 -447 -172
-112 -26 -170 -36 -241 -46 -106 -14 -352 -19 -445 -8 -39 5 -88 10 -110 13
-22 2 -76 12 -120 21 -614 125 -1130 521 -1415 1083 -88 175 -154 382 -189
597 -16 98 -19 158 -16 325 1 113 6 221 9 240 51 272 97 422 187 607 152 311
367 565 647 763 350 247 738 366 1182 363 215 -1 429 -37 635 -105 95 -31 98
-32 239 -97 133 -61 353 -200 422 -265 6 -6 41 -36 77 -66 36 -30 66 -59 66
-65 1 -5 -47 -59 -105 -120 -82 -85 -602 -620 -672 -692 -11 -11 146 -13 975
-13 l988 0 0 1030 c0 683 -3 1030 -10 1029 -5 0 -23 -15 -38 -32z"/>
<path d="M3210 3936 l1 -731 616 -365 c339 -201 619 -366 623 -368 6 -2 64 90
167 263 25 43 45 86 42 89 -2 2 -139 84 -304 181 -165 98 -316 188 -335 200
-58 37 -140 85 -144 85 -7 0 -221 133 -226 141 -3 4 -5 283 -5 621 l1 614
-218 1 -218 0 0 -731z"/>
</g>
</svg>
