<?xml version="1.0" standalone="no"?>
<!DOCTYPE svg PUBLIC "-//W3C//DTD SVG 20010904//EN"
 "http://www.w3.org/TR/2001/REC-SVG-20010904/DTD/svg10.dtd">
<svg version="1.0" xmlns="http://www.w3.org/2000/svg"
 width="700.000000pt" height="700.000000pt" viewBox="0 0 700.000000 700.000000"
 preserveAspectRatio="xMidYMid meet">
<metadata>
Created by potrace 1.14, written by Peter Selinger 2001-2017
</metadata>
<g transform="translate(0.000000,700.000000) scale(0.100000,-0.100000)"
fill="#000000" stroke="none">
<path d="M3277 6974 c-1 -1 -38 -4 -82 -8 -44 -3 -96 -8 -115 -11 -19 -2 -53
-7 -76 -10 -89 -11 -255 -45 -369 -75 -114 -29 -337 -99 -380 -119 -11 -6 -65
-28 -120 -51 -229 -95 -530 -270 -730 -422 -214 -164 -433 -373 -570 -542 -22
-28 -47 -57 -55 -66 -44 -45 -280 -388 -280 -406 0 -3 -9 -19 -20 -34 -42 -59
-227 -446 -236 -495 -1 -5 -14 -41 -29 -80 -15 -38 -29 -77 -31 -85 -2 -8 -20
-71 -39 -140 -20 -69 -41 -147 -46 -175 -6 -27 -12 -59 -15 -70 -2 -11 -6 -31
-9 -45 -5 -21 -14 -83 -40 -265 -23 -156 -23 -637 0 -753 2 -11 6 -43 10 -73
32 -271 117 -593 231 -872 57 -139 143 -317 154 -317 4 0 104 55 221 123 317
183 359 207 359 213 0 2 -14 32 -30 65 -65 127 -150 354 -189 499 -16 63 -27
109 -56 251 -2 9 -6 40 -10 69 -4 29 -9 62 -11 74 -8 45 -18 218 -18 336 -1
457 95 862 300 1274 163 327 407 635 703 886 158 134 420 300 613 389 123 57
295 123 308 119 3 -1 15 4 26 10 20 11 182 56 234 66 14 2 36 7 50 10 14 3 39
8 55 11 17 3 55 9 85 15 55 10 98 15 219 25 35 3 66 7 70 9 3 2 6 154 6 338
l0 333 -43 1 c-23 0 -43 0 -45 -2z"/>
<path d="M3648 6962 c-6 -29 -3 -651 4 -657 4 -4 37 -8 75 -11 235 -12 569
-90 820 -189 112 -45 330 -150 383 -185 14 -9 72 -47 130 -85 453 -295 814
-727 1035 -1240 9 -22 21 -49 26 -60 48 -115 119 -362 147 -520 38 -209 46
-299 46 -520 0 -182 -7 -282 -29 -425 -5 -31 -8 -51 -20 -121 -33 -184 -139
-499 -231 -682 -19 -37 -34 -70 -34 -72 0 -2 193 -117 310 -182 125 -71 236
-136 244 -144 22 -21 37 -3 89 104 165 337 282 726 323 1072 3 28 7 61 10 75
17 101 23 437 11 620 -9 140 -14 181 -42 340 -31 171 -33 183 -52 255 -8 33
-16 67 -18 75 -4 22 -85 271 -95 295 -5 11 -34 81 -65 155 -90 212 -206 424
-340 617 -47 68 -135 186 -144 193 -3 3 -26 30 -51 60 -308 380 -764 726
-1245 945 -145 66 -453 175 -567 199 -13 3 -72 16 -133 29 -60 14 -131 27
-156 31 -25 4 -57 8 -70 10 -78 13 -186 24 -280 31 -67 4 -77 2 -81 -13z"/>
<path d="M2330 5678 c-104 -53 -157 -194 -121 -324 16 -58 65 -128 106 -150
28 -15 35 -25 36 -49 2 -116 17 -302 35 -420 70 -475 248 -788 558 -985 160
-101 202 -136 225 -182 42 -87 19 -175 -62 -242 -24 -20 -47 -36 -50 -36 -3 0
-52 -31 -109 -69 -177 -119 -276 -221 -371 -386 -71 -122 -146 -336 -173 -495
-3 -14 -7 -32 -9 -40 -2 -8 -7 -42 -11 -75 -3 -33 -8 -69 -10 -80 -3 -18 -6
-47 -19 -220 -2 -27 -4 -67 -4 -87 -1 -24 -6 -38 -14 -38 -36 0 -118 -105
-133 -171 -12 -54 -5 -145 16 -192 26 -59 86 -119 133 -134 25 -8 369 -11
1154 -11 1097 0 1119 1 1158 20 51 26 82 60 113 126 56 122 9 293 -97 353 -25
13 -37 28 -37 42 -2 74 -16 260 -24 325 -17 128 -20 144 -35 208 -8 34 -16 73
-19 85 -10 48 -44 156 -71 224 -26 66 -101 214 -114 225 -3 3 -20 25 -36 49
-55 82 -177 190 -320 286 -77 51 -150 102 -162 114 -50 47 -70 121 -51 187 14
52 68 106 171 171 124 77 199 135 276 213 183 184 313 498 357 860 3 30 8 66
9 80 2 14 6 75 10 135 4 61 8 127 9 149 2 21 9 42 17 46 110 64 160 179 136
310 -14 78 -69 153 -132 181 -38 18 -95 19 -1165 19 l-1126 0 -44 -22z"/>
<path d="M1105 1920 c-27 -16 -61 -35 -75 -43 -14 -8 -57 -33 -97 -55 -39 -23
-87 -50 -105 -61 -18 -10 -83 -48 -145 -83 l-112 -65 58 -85 c463 -680 1182
-1191 1971 -1403 145 -39 342 -78 455 -90 22 -3 56 -7 76 -9 186 -24 524 -25
744 -2 30 4 146 19 155 21 3 1 30 5 60 9 66 10 62 9 179 35 51 12 125 31 165
42 39 11 80 23 91 26 39 10 219 75 289 104 39 17 89 37 111 47 83 34 294 148
419 225 115 71 343 236 394 284 10 10 47 43 82 73 89 78 194 183 295 297 87
97 262 325 302 393 l21 35 -285 165 c-157 91 -289 166 -292 167 -3 1 -35 -39
-71 -89 -396 -555 -982 -947 -1650 -1102 -58 -13 -123 -27 -145 -30 -22 -4
-67 -11 -100 -16 -189 -30 -560 -32 -745 -4 -347 51 -614 131 -883 265 -137
68 -332 184 -397 236 -8 6 -55 43 -105 81 -207 159 -431 400 -595 639 l-15 22
-50 -29z"/>
</g>
</svg>
